<?xml version="1.0" standalone="no"?>
<!DOCTYPE svg PUBLIC "-//W3C//DTD SVG 20010904//EN"
 "http://www.w3.org/TR/2001/REC-SVG-20010904/DTD/svg10.dtd">
<svg version="1.0" xmlns="http://www.w3.org/2000/svg"
 width="218.000000pt" height="75.000000pt" viewBox="0 0 218.000000 75.000000"
 preserveAspectRatio="xMidYMid meet">

<g transform="translate(0.000000,75.000000) scale(0.100000,-0.100000)"
fill="#000000" stroke="none">
<path d="M283 578 c2 -7 14 -13 26 -13 12 0 26 -7 31 -15 6 -9 10 -10 10 -3 0
14 -39 43 -58 43 -8 0 -12 -6 -9 -12z"/>
<path d="M422 574 c-12 -8 -22 -21 -22 -27 0 -7 4 -6 10 3 5 8 19 15 31 15 12
0 24 6 26 13 6 17 -18 15 -45 -4z"/>
<path d="M348 529 c-21 -12 -24 -59 -6 -77 19 -19 55 -14 72 10 20 29 20 34
-4 58 -22 22 -37 24 -62 9z"/>
<path d="M299 413 c-37 -31 -89 -121 -82 -140 13 -33 106 29 134 91 24 52 24
62 -1 69 -13 3 -32 -4 -51 -20z"/>
<path d="M398 430 c-36 -21 17 -117 84 -151 54 -28 66 -14 38 42 -20 40 -87
119 -100 119 -3 0 -13 -5 -22 -10z"/>
<path d="M1414 406 c-31 -14 -44 -33 -44 -66 0 -27 25 -48 73 -61 47 -12 61
-27 45 -46 -14 -18 -53 -16 -68 2 -14 17 -60 20 -60 5 0 -6 11 -22 25 -35 19
-20 34 -25 74 -25 42 0 53 4 70 26 12 15 21 32 21 39 0 27 -41 63 -85 74 -35
9 -46 16 -43 29 4 19 68 31 68 13 0 -6 11 -11 25 -11 50 0 16 55 -41 65 -16 3
-43 -1 -60 -9z"/>
<path d="M1793 408 c-41 -64 -48 -81 -35 -86 8 -2 12 -29 12 -73 0 -67 1 -69
25 -69 24 0 25 2 25 70 0 63 2 70 20 70 27 0 25 28 -2 40 l-23 9 22 6 c11 4
23 15 26 26 4 16 0 19 -28 19 -19 0 -37 -6 -42 -12z"/>
<path d="M780 295 l0 -115 65 0 c57 0 69 3 90 25 31 30 31 50 3 78 -22 21 -22
23 -5 40 22 22 22 42 -3 67 -16 16 -33 20 -85 20 l-65 0 0 -115z m114 59 c9
-23 -2 -34 -35 -34 -24 0 -29 4 -29 25 0 21 5 25 29 25 17 0 31 -6 35 -16z m1
-104 c0 -21 -5 -26 -32 -28 -31 -3 -33 -1 -33 28 0 29 2 31 33 28 27 -2 32 -7
32 -28z"/>
<path d="M358 350 l-17 -30 35 0 35 0 -16 30 c-9 17 -17 30 -18 30 -1 0 -10
-14 -19 -30z"/>
<path d="M1034 350 c-53 -22 -70 -97 -33 -144 16 -21 29 -26 62 -26 43 1 77
18 77 39 0 14 -22 14 -54 0 -20 -9 -29 -9 -41 1 -26 22 -17 29 43 32 56 3 57
3 55 32 -4 52 -61 86 -109 66z m56 -45 c11 -13 7 -15 -25 -15 -32 0 -36 2 -25
15 7 8 18 15 25 15 7 0 18 -7 25 -15z"/>
<path d="M1223 350 c-56 -23 -69 -114 -22 -152 31 -26 94 -23 121 4 21 21 21
23 5 26 -10 2 -32 -2 -48 -8 -23 -10 -32 -10 -44 0 -26 22 -17 29 43 32 50 3
57 6 60 26 2 14 -7 33 -27 52 -30 31 -50 35 -88 20z m65 -47 c2 -9 -8 -13 -33
-13 -33 0 -36 2 -25 15 15 18 51 16 58 -2z"/>
<path d="M1615 348 c-21 -12 -35 -28 -35 -40 0 -12 38 -10 45 2 8 13 42 13 51
-1 9 -15 -14 -29 -47 -29 -46 0 -77 -58 -47 -88 16 -16 70 -16 86 0 9 9 12 9
12 0 0 -7 11 -12 25 -12 24 0 25 2 25 69 0 63 -2 71 -26 90 -30 23 -59 26 -89
9z m65 -101 c0 -19 -21 -37 -42 -37 -26 0 -22 29 5 40 31 12 37 12 37 -3z"/>
<path d="M1919 345 c-35 -19 -51 -64 -38 -109 12 -42 33 -56 87 -56 35 0 72
22 72 43 0 11 -45 8 -57 -4 -14 -14 -49 -3 -57 16 -4 12 6 15 54 15 57 0 60 1
60 24 0 38 -10 56 -41 71 -34 18 -47 18 -80 0z m69 -42 c2 -9 -8 -13 -33 -13
-33 0 -36 2 -25 15 15 18 51 16 58 -2z"/>
<path d="M320 295 c-11 -13 -4 -15 54 -15 36 0 66 4 66 9 0 24 -101 29 -120 6z"/>
<path d="M320 255 c0 -12 13 -15 61 -15 81 0 77 24 -4 28 -46 2 -57 0 -57 -13z"/>
<path d="M325 220 c-3 -5 0 -13 8 -16 23 -8 92 0 92 11 0 14 -92 19 -100 5z"/>
<path d="M343 178 c2 -7 16 -13 32 -13 16 0 30 6 33 13 2 8 -8 12 -33 12 -25
0 -35 -4 -32 -12z"/>
</g>
</svg>
