<svg width="80" height="80" viewBox="0 0 80 80" fill="none" xmlns="http://www.w3.org/2000/svg">
<path d="M40 19.9997V29.9997L53.3334 16.6663L40 3.33301V13.333C32.9276 13.333 26.1448 16.1425 21.1439 21.1435C16.1429 26.1445 13.3334 32.9272 13.3334 39.9997C13.3334 45.233 14.8667 50.0997 17.4667 54.1997L22.3334 49.333C20.7949 46.463 19.9931 43.256 20 39.9997C20 34.6953 22.1072 29.6083 25.8579 25.8575C29.6086 22.1068 34.6957 19.9997 40 19.9997ZM62.5334 25.7997L57.6667 30.6663C59.1334 33.4663 60 36.6663 60 39.9997C60 45.304 57.8929 50.3911 54.1422 54.1418C50.3914 57.8925 45.3044 59.9997 40 59.9997V49.9997L26.6667 63.333L40 76.6663V66.6663C47.0725 66.6663 53.8553 63.8568 58.8562 58.8559C63.8572 53.8549 66.6667 47.0721 66.6667 39.9997C66.6667 34.7663 65.1334 29.8997 62.5334 25.7997Z" fill="black"/>
</svg>
