<?xml version="1.0" standalone="no"?>
<!DOCTYPE svg PUBLIC "-//W3C//DTD SVG 20010904//EN"
 "http://www.w3.org/TR/2001/REC-SVG-20010904/DTD/svg10.dtd">
<svg version="1.0" xmlns="http://www.w3.org/2000/svg"
 width="194.000000pt" height="77.000000pt" viewBox="0 0 194.000000 77.000000"
 preserveAspectRatio="xMidYMid meet">

<g transform="translate(0.000000,77.000000) scale(0.100000,-0.100000)"
fill="#000000" stroke="none">
<path d="M136 674 c-24 -23 -24 -555 0 -578 23 -24 555 -24 578 0 24 23 24
555 0 578 -23 24 -555 24 -578 0z m174 -197 c0 -20 -8 -39 -20 -50 -11 -9 -20
-28 -20 -42 0 -14 9 -34 20 -45 18 -18 29 -80 15 -80 -20 0 -69 36 -85 63 -36
59 -18 130 43 167 43 27 47 25 47 -13z m271 18 c37 -20 69 -70 69 -110 0 -40
-32 -90 -69 -110 -40 -20 -41 -20 -41 18 0 21 7 36 20 45 14 8 20 23 20 47 0
24 -6 37 -20 45 -14 8 -20 21 -20 45 0 40 1 40 41 20z m-113 -67 c7 -7 12 -26
12 -43 0 -17 -5 -36 -12 -43 -7 -7 -26 -12 -43 -12 -17 0 -36 5 -43 12 -17 17
-15 64 4 82 18 19 65 21 82 4z"/>
<path d="M922 423 c-17 -6 -42 -57 -42 -83 0 -32 53 -80 88 -80 36 0 88 38 73
53 -7 7 -16 5 -29 -6 -22 -20 -63 -22 -80 -5 -7 7 -12 26 -12 43 0 17 5 36 12
43 15 15 60 16 75 1 6 -6 19 -9 29 -7 17 3 17 5 -4 26 -21 21 -76 29 -110 15z"/>
<path d="M1082 348 c3 -70 6 -83 21 -86 15 -3 17 6 17 82 0 80 -1 86 -20 86
-20 0 -21 -5 -18 -82z"/>
<path d="M1150 415 c0 -10 10 -15 30 -15 l30 0 0 -70 c0 -56 3 -70 15 -70 12
0 15 14 15 70 l0 70 30 0 c20 0 30 5 30 15 0 12 -15 15 -75 15 -60 0 -75 -3
-75 -15z"/>
<path d="M1330 345 c0 -69 3 -85 15 -85 12 0 15 16 15 85 0 69 -3 85 -15 85
-12 0 -15 -16 -15 -85z"/>
<path d="M1400 416 c0 -10 14 -16 45 -18 l45 -3 -45 -55 c-24 -30 -44 -61 -45
-67 0 -9 20 -13 70 -13 54 0 70 3 70 14 0 10 -14 16 -45 18 l-45 3 45 57 c25
32 45 62 45 68 0 6 -29 10 -70 10 -54 0 -70 -3 -70 -14z"/>
<path d="M1580 345 l0 -85 65 0 c51 0 65 3 65 15 0 11 -12 15 -50 15 -47 0
-50 2 -50 25 0 23 4 25 40 25 51 0 53 18 3 22 -27 2 -39 8 -41 21 -3 14 4 17
47 17 39 0 51 4 51 15 0 12 -14 15 -65 15 l-65 0 0 -85z"/>
<path d="M1750 345 c0 -69 3 -85 15 -85 12 0 15 14 15 62 l0 62 46 -62 c64
-86 74 -83 74 23 0 69 -3 85 -15 85 -12 0 -15 -13 -15 -57 l0 -57 -42 57 c-24
33 -49 57 -60 57 -16 0 -18 -10 -18 -85z"/>
</g>
</svg>
