<svg width="80" height="80" viewBox="0 0 80 80" fill="none" xmlns="http://www.w3.org/2000/svg">
<g clip-path="url(#clip0_201_2242)">
<path d="M57.7778 46.9999C56.7463 45.1697 55.3503 43.5707 53.6762 42.3017C52.002 41.0326 50.0852 40.1207 48.0444 39.6221C46.1296 39.0476 44.1862 38.5729 42.2222 38.1999V18.0443C46.1269 18.4632 49.8521 19.9042 53.0222 22.2221C53.2411 22.4162 53.496 22.5652 53.7725 22.6608C54.049 22.7563 54.3416 22.7964 54.6335 22.7789C54.9255 22.7614 55.2112 22.6865 55.4743 22.5585C55.7373 22.4306 55.9726 22.2521 56.1666 22.0332C56.3607 21.8144 56.5098 21.5594 56.6053 21.2829C56.7008 21.0065 56.741 20.7139 56.7234 20.4219C56.7059 20.1299 56.631 19.8442 56.5031 19.5812C56.3751 19.3181 56.1966 19.0828 55.9778 18.8888C52.0006 15.8257 47.2247 13.974 42.2222 13.5554V6.66656C42.2222 6.07719 41.9881 5.51196 41.5713 5.09521C41.1546 4.67846 40.5894 4.44434 40 4.44434C39.4106 4.44434 38.8454 4.67846 38.4286 5.09521C38.0119 5.51196 37.7778 6.07719 37.7778 6.66656V13.3332C28 13.5554 22.6 18.4221 20.9555 22.6221C19.8585 25.3267 19.7543 28.3322 20.6613 31.1063C21.5684 33.8803 23.4282 36.2437 25.9111 37.7777C29.5253 39.9808 33.5735 41.3757 37.7778 41.8666V62.2221C31.9762 61.93 26.4186 59.7973 21.9111 56.1332C21.7099 55.8938 21.4605 55.6996 21.1792 55.5632C20.8978 55.4268 20.5908 55.3513 20.2783 55.3417C19.9657 55.332 19.6547 55.3885 19.3655 55.5073C19.0762 55.6261 18.8153 55.8046 18.5998 56.0311C18.3843 56.2576 18.219 56.5271 18.1147 56.8219C18.0105 57.1167 17.9696 57.4302 17.9948 57.7418C18.02 58.0535 18.1106 58.3564 18.2609 58.6306C18.4111 58.9048 18.6175 59.1442 18.8666 59.3332C24.1821 63.8083 30.835 66.3881 37.7778 66.6666V73.3332C37.7778 73.9226 38.0119 74.4878 38.4286 74.9046C38.8454 75.3213 39.4106 75.5554 40 75.5554C40.5894 75.5554 41.1546 75.3213 41.5713 74.9046C41.9881 74.4878 42.2222 73.9226 42.2222 73.3332V66.6666C48.4889 66.2443 55.7111 64.2443 58.4444 56.0888C58.9389 54.6048 59.1346 53.0376 59.0202 51.4776C58.9058 49.9177 58.4835 48.3958 57.7778 46.9999ZM28.4222 34.0443C26.7995 33.0784 25.5746 31.5653 24.9677 29.7771C24.3608 27.9889 24.4116 26.0429 25.1111 24.2888C25.3555 23.6221 27.8444 18.0443 37.7778 17.7777V37.3332C34.4627 36.9066 31.2749 35.786 28.4222 34.0443ZM54.2222 54.5777C52.6222 59.3332 49.0666 61.6221 42.2222 62.1332V42.7332C43.6444 43.0443 45.1111 43.3999 46.6666 43.8666C48.1361 44.2003 49.5223 44.8295 50.741 45.7158C51.9596 46.6021 52.9853 47.727 53.7555 49.0221C54.6271 50.743 54.7945 52.7355 54.2222 54.5777Z" fill="black"/>
</g>
<defs>
<clipPath id="clip0_201_2242">
<rect width="80" height="80" fill="white"/>
</clipPath>
</defs>
</svg>
