<svg width="75" height="75" viewBox="0 0 75 75" fill="none" xmlns="http://www.w3.org/2000/svg">
<path d="M67.8442 27.2192C71.7505 23.313 69.9692 18.7505 67.8442 16.5317L58.4692 7.15673C54.5317 3.25048 50.0005 5.03173 47.7817 7.15673L42.4692 12.5005H34.3755C28.438 12.5005 25.0005 15.6255 23.2505 19.2192L9.37548 33.0942V45.5942L7.15673 47.7817C3.25048 51.7192 5.03173 56.2505 7.15673 58.4692L16.5317 67.8442C18.2192 69.5317 20.0317 70.1567 21.7505 70.1567C23.9692 70.1567 26.0005 69.063 27.2192 67.8442L35.6567 59.3755H46.8755C52.188 59.3755 54.8755 56.063 55.8442 52.813C59.3755 51.8755 61.313 49.188 62.0942 46.563C66.938 45.313 68.7505 40.7192 68.7505 37.5005V28.1255H66.9067L67.8442 27.2192ZM62.5005 37.5005C62.5005 38.9067 61.9067 40.6255 59.3755 40.6255H56.2505V43.7505C56.2505 45.1567 55.6567 46.8755 53.1255 46.8755H50.0005V50.0005C50.0005 51.4067 49.4067 53.1255 46.8755 53.1255H33.0942L22.8442 63.3755C21.8755 64.2817 21.313 63.7505 20.9692 63.4067L11.6255 54.0942C10.7192 53.1255 11.2505 52.563 11.5942 52.2192L15.6255 48.1567V35.6567L21.8755 29.4067V34.3755C21.8755 38.1567 24.3755 43.7505 31.2505 43.7505C38.1255 43.7505 40.6255 38.1567 40.6255 34.3755H62.5005V37.5005ZM63.4067 22.7817L58.0942 28.1255H34.3755V34.3755C34.3755 35.7817 33.7817 37.5005 31.2505 37.5005C28.7192 37.5005 28.1255 35.7817 28.1255 34.3755V25.0005C28.1255 23.563 28.6567 18.7505 34.3755 18.7505H45.0317L52.1567 11.6255C53.1255 10.7192 53.688 11.2505 54.0317 11.5942L63.3755 20.9067C64.2817 21.8755 63.7505 22.438 63.4067 22.7817Z" fill="black"/>
</svg>
