<svg width="75" height="75" viewBox="0 0 75 75" fill="none" xmlns="http://www.w3.org/2000/svg">
<path d="M52.1484 9.375C46.0986 9.375 40.8018 11.9766 37.5 16.374C34.1982 11.9766 28.9014 9.375 22.8516 9.375C18.0358 9.38043 13.4189 11.2959 10.0136 14.7011C6.60838 18.1064 4.69293 22.7233 4.6875 27.5391C4.6875 48.0469 35.0947 64.6465 36.3896 65.332C36.7309 65.5156 37.1124 65.6117 37.5 65.6117C37.8876 65.6117 38.2691 65.5156 38.6103 65.332C39.9053 64.6465 70.3125 48.0469 70.3125 27.5391C70.3071 22.7233 68.3916 18.1064 64.9864 14.7011C61.5811 11.2959 56.9642 9.38043 52.1484 9.375ZM37.5 60.5859C32.1504 57.4688 9.375 43.2686 9.375 27.5391C9.37965 23.9663 10.801 20.5412 13.3273 18.0148C15.8537 15.4885 19.2788 14.0672 22.8516 14.0625C28.5498 14.0625 33.334 17.0977 35.332 21.9727C35.5086 22.4025 35.809 22.7702 36.195 23.029C36.581 23.2877 37.0353 23.4259 37.5 23.4259C37.9647 23.4259 38.419 23.2877 38.805 23.029C39.191 22.7702 39.4914 22.4025 39.668 21.9727C41.666 17.0889 46.4502 14.0625 52.1484 14.0625C55.7212 14.0672 59.1463 15.4885 61.6727 18.0148C64.199 20.5412 65.6203 23.9663 65.625 27.5391C65.625 43.2451 42.8438 57.4658 37.5 60.5859Z" fill="black"/>
</svg>
