<?xml version="1.0" encoding="UTF-8"?>
<svg version="1.1" xmlns="http://www.w3.org/2000/svg" width="185" height="64">
<path d="M0 0 C1.22167374 -0.00336868 2.44334747 -0.00673737 3.70204163 -0.01020813 C6.28341891 -0.00990937 8.86483156 0.00533113 11.44604492 0.03442383 C15.39286913 0.07404521 19.3363248 0.05514495 23.28320312 0.02929688 C25.79298177 0.03685726 28.30275295 0.04781199 30.8125 0.0625 C31.99077866 0.0555159 33.16905731 0.0485318 34.38304138 0.04133606 C43.52383877 0.19847405 43.52383877 0.19847405 47.21630859 2.56347656 C50.64377535 7.42171227 50.31408792 11.81865461 50.234375 17.6328125 C50.23774368 18.7878981 50.24111237 19.9429837 50.24458313 21.1330719 C50.24428443 23.57321631 50.22905012 26.01339822 50.19995117 28.45336914 C50.16032884 32.18297264 50.1792307 35.90901109 50.20507812 39.63867188 C50.19751764 42.01173252 50.18656281 44.38478527 50.171875 46.7578125 C50.18235115 48.42679848 50.18235115 48.42679848 50.19303894 50.12950134 C50.03586766 58.77508893 50.03586766 58.77508893 47.71191406 62.46435547 C42.68929997 66.02651997 37.96156169 65.60133527 31.9453125 65.5234375 C30.1128019 65.52849052 30.1128019 65.52849052 28.24327087 65.53364563 C25.66189359 65.53334687 23.08048094 65.51810637 20.49926758 65.48901367 C16.55244337 65.44939229 12.6089877 65.46829255 8.66210938 65.49414062 C6.15233073 65.48658024 3.64255955 65.47562551 1.1328125 65.4609375 C-0.04546616 65.4679216 -1.22374481 65.4749057 -2.43772888 65.48210144 C-11.57852627 65.32496345 -11.57852627 65.32496345 -15.27099609 62.95996094 C-18.69846285 58.10172523 -18.36877542 53.70478289 -18.2890625 47.890625 C-18.29243118 46.7355394 -18.29579987 45.5804538 -18.29927063 44.3903656 C-18.29897193 41.95022119 -18.28373762 39.51003928 -18.25463867 37.07006836 C-18.21501634 33.34046486 -18.2339182 29.61442641 -18.25976562 25.88476562 C-18.25220514 23.51170498 -18.24125031 21.13865223 -18.2265625 18.765625 C-18.2335466 17.65296768 -18.2405307 16.54031036 -18.24772644 15.39393616 C-18.09055516 6.74834857 -18.09055516 6.74834857 -15.76660156 3.05908203 C-10.74398747 -0.50308247 -6.01624919 -0.07789777 0 0 Z " fill="#7875EB" transform="translate(17.52734375,-0.76171875)"/>
<path d="M0 0 C35.31 0 70.62 0 107 0 C107 12.87 107 25.74 107 39 C71.69 39 36.38 39 0 39 C0 26.13 0 13.26 0 0 Z " fill="#FDFCFD" transform="translate(78,13)"/>
<path d="M0 0 C6.65540776 3.81086743 10.81087968 8.24231656 13.28515625 15.5546875 C15.21896473 23.41078443 13.87114338 30.0545764 9.91015625 37.09375 C6.37084863 41.73855565 2.79524129 45.03443469 -3.08984375 46.09375 C-11.45811742 46.99752356 -21.25208888 45.71092268 -28.08984375 40.53125 C-32.91853928 35.76158498 -35.2218397 29.30092054 -35.58984375 22.59375 C-35.13634679 14.80184763 -32.38299419 8.87549949 -26.65234375 3.59375 C-19.03792893 -2.86857075 -9.20797443 -4.08402973 0 0 Z " fill="#F1F1FD" transform="translate(44.08984375,9.90625)"/>
<path d="M0 0 C4.43395064 3.14464585 7.19538751 7.17498032 8.203125 12.5625 C9.02305055 20.31546692 8.96868826 26.44507903 4.04296875 32.75 C0.04238348 36.69112859 -4.15179722 38.75547901 -9.796875 38.8125 C-10.786875 38.73 -11.776875 38.6475 -12.796875 38.5625 C-12.796875 35.5625 -12.796875 35.5625 -10.796875 32.5625 C-8.95703125 31.97265625 -8.95703125 31.97265625 -6.859375 31.625 C-3.96318451 30.99539337 -3.0123782 30.7780032 -0.859375 28.625 C2.26297355 22.56397046 2.07749288 15.56813959 0.203125 9.125 C-3.20332325 4.76048818 -7.42911683 3.00645466 -12.796875 2 C-17.21023127 2.8275043 -20.47165481 4.53823793 -23.796875 7.5625 C-27.10628268 12.62006656 -27.58577963 18.68157456 -26.796875 24.5625 C-25.99130637 27.3649024 -24.95677022 29.8715431 -23.796875 32.5625 C-23.466875 33.5525 -23.136875 34.5425 -22.796875 35.5625 C-26.43280977 34.7314292 -28.42582405 33.23221955 -30.609375 30.3125 C-33.98704333 24.45502453 -33.61305529 18.09957021 -32.796875 11.5625 C-30.87428045 4.67767817 -26.6185024 0.79178265 -20.546875 -2.75 C-12.96703841 -4.64495915 -6.83298032 -3.78177527 0 0 Z " fill="#7F7CEC" transform="translate(45.796875,14.4375)"/>
<path d="M0 0 C3.97245401 0.70936679 5.67231707 1.79731707 8.5 4.625 C10.2246216 8.0742432 9.86610104 11.84631431 9.5 15.625 C8.22370004 18.6243049 7.27652135 20.08143506 4.625 21.9375 C1.94304677 22.80519075 0.30382 23.10370098 -2.5 22.625 C-8.21044467 17.69325233 -8.21044467 17.69325233 -8.7734375 13.671875 C-8.95544244 9.55576322 -8.92210973 6.47578354 -6.4375 3.0625 C-3.5 0.625 -3.5 0.625 0 0 Z " fill="#845DF2" transform="translate(172.5,19.375)"/>
<path d="M0 0 C3.09098636 1.77567301 4.52950156 3.19343124 6.3125 6.25 C7.53252865 11.1301146 7.8242325 15.27660478 5.625 19.875 C4 22 4 22 2 24 C1.01 24 0.02 24 -1 24 C-0.83886719 23.29230469 -0.67773438 22.58460937 -0.51171875 21.85546875 C0.00820691 18.95420419 0.16741029 16.25765087 0.1875 13.3125 C0.20167969 12.35988281 0.21585938 11.40726563 0.23046875 10.42578125 C0.24258197 7.81787718 0.24258197 7.81787718 -2 6 C-5.58343976 5.83322718 -5.58343976 5.83322718 -9 6 C-10.47754292 11.22545667 -11.1844986 17.07754712 -9.10546875 22.20703125 C-7.91921595 24.32783797 -7.91921595 24.32783797 -6 27 C-6.99 27.99 -7.98 28.98 -9 30 C-12.07836613 29.04464499 -13.00121326 27.99809344 -14.75 25.25 C-16.94181053 19.46605555 -16.79631264 13.05197608 -16 7 C-12.65996263 0.02303306 -7.0720544 -0.88094795 0 0 Z " fill="#7C79EB" transform="translate(38,20)"/>
<path d="M0 0 C0.86625 0.20625 1.7325 0.4125 2.625 0.625 C1.305 2.935 -0.015 5.245 -1.375 7.625 C-0.611875 7.7075 0.15125 7.79 0.9375 7.875 C3.625 8.625 3.625 8.625 5.5 10.3125 C7.08137619 13.56310661 6.75940386 15.22178843 5.625 18.625 C3.5 21.0625 3.5 21.0625 0.625 22.625 C-2.84258942 22.56521398 -5.26326749 22.23465977 -8.3125 20.5625 C-10.13450611 17.24001827 -10.1150673 14.22906759 -9.375 10.625 C-5.39006333 0.99815988 -5.39006333 0.99815988 0 0 Z " fill="#8863F1" transform="translate(156.375,19.375)"/>
<path d="M0 0 C1.9375 1 1.9375 1 3 3 C3.18908123 5.69035578 3.08718892 8.29714354 3 11 C3.33 11.33 3.66 11.66 4 12 C4.375 14.8125 4.375 14.8125 4 18 C1.9375 20.4375 1.9375 20.4375 -1 22 C-4.57675106 21.93833188 -6.95185593 21.71003308 -9.9375 19.6875 C-11 18 -11 18 -11 14 C-9.68 14 -8.36 14 -7 14 C-6.67 14.66 -6.34 15.32 -6 16 C-3.47266765 16.65555119 -3.47266765 16.65555119 -1 17 C-1.26676204 15.01508358 -1.26676204 15.01508358 -2 13 C-2.99 12.67 -3.98 12.34 -5 12 C-5 11.01 -5 10.02 -5 9 C-4.01 8.34 -3.02 7.68 -2 7 C-2 6.34 -2 5.68 -2 5 C-2.99 5 -3.98 5 -5 5 C-5.33 5.66 -5.66 6.32 -6 7 C-7.65 7 -9.3 7 -11 7 C-10.6875 4.625 -10.6875 4.625 -10 2 C-6.30513897 -0.46324069 -4.36706908 -0.38991688 0 0 Z " fill="#8762F1" transform="translate(141,20)"/>
<path d="M0 0 C2.4375 1.6875 2.4375 1.6875 4 4 C4 5.65 4 7.3 4 9 C0.37 9 -3.26 9 -7 9 C-6.67 9.66 -6.34 10.32 -6 11 C-4.329375 10.7215625 -4.329375 10.7215625 -2.625 10.4375 C1 10 1 10 3 11 C2.4375 12.9375 2.4375 12.9375 1 15 C-3.02152154 16.21404424 -5.10465506 16.41909763 -8.9375 14.625 C-11.54597073 11.30512816 -11.6724564 9.19680245 -11.4140625 5.0625 C-11 3 -11 3 -9.4375 0.9375 C-6.05217395 -0.36454848 -3.59663278 -0.4495791 0 0 Z " fill="#815AF1" transform="translate(124,26)"/>
<path d="M0 0 C1.65 0 3.3 0 5 0 C5 5.61 5 11.22 5 17 C7.64 17 10.28 17 13 17 C13 18.32 13 19.64 13 21 C8.71 21 4.42 21 0 21 C0 14.07 0 7.14 0 0 Z " fill="#8761F1" transform="translate(80,20)"/>
<path d="M0 0 C0.928125 0.0825 1.85625 0.165 2.8125 0.25 C2.8125 1.57 2.8125 2.89 2.8125 4.25 C1.4925 4.25 0.1725 4.25 -1.1875 4.25 C-1.1875 5.24 -1.1875 6.23 -1.1875 7.25 C0.1325 7.25 1.4525 7.25 2.8125 7.25 C2.8125 8.57 2.8125 9.89 2.8125 11.25 C1.4925 11.25 0.1725 11.25 -1.1875 11.25 C-1.1875 14.88 -1.1875 18.51 -1.1875 22.25 C-2.8375 22.25 -4.4875 22.25 -6.1875 22.25 C-6.26853404 19.33277452 -6.32801081 16.41780484 -6.375 13.5 C-6.40013672 12.675 -6.42527344 11.85 -6.45117188 11 C-6.52485755 4.90865046 -6.52485755 4.90865046 -4.875 1.6875 C-3.1875 0.25 -3.1875 0.25 0 0 Z " fill="#8A65F1" transform="translate(109.1875,18.75)"/>
<path d="M0 0 C1.98 0 3.96 0 6 0 C4.68 2.31 3.36 4.62 2 7 C2.78375 7.12375 3.5675 7.2475 4.375 7.375 C7 8 7 8 9 10 C9.125 12.625 9.125 12.625 9 15 C8.01 15 7.02 15 6 15 C5.34 14.01 4.68 13.02 4 12 C1.5 11.5 1.5 11.5 -1 12 C-1.99 13.485 -1.99 13.485 -3 15 C-3.33 13.68 -3.66 12.36 -4 11 C-4.99 11.495 -4.99 11.495 -6 12 C-4.43358249 7.69235185 -2.31663844 3.93828536 0 0 Z " fill="#855FF0" transform="translate(153,20)"/>
<path d="M0 0 C4.55555556 0.55555556 4.55555556 0.55555556 6 2 C6.16796875 3.99609375 6.16796875 3.99609375 6.1875 6.4375 C6.20167969 7.24058594 6.21585938 8.04367188 6.23046875 8.87109375 C6 11 6 11 4 13 C-0.55555556 12.44444444 -0.55555556 12.44444444 -2 11 C-2.16796875 9.00390625 -2.16796875 9.00390625 -2.1875 6.5625 C-2.20167969 5.75941406 -2.21585938 4.95632812 -2.23046875 4.12890625 C-2 2 -2 2 0 0 Z " fill="#FAF8FC" transform="translate(171,24)"/>
<path d="M0 0 C0.33 0 0.66 0 1 0 C1.57563851 9.78585462 1.57563851 9.78585462 -2 14 C-4.94849393 16.06394575 -7.44318816 16.53352178 -11 16 C-13.3125 14 -13.3125 14 -15 12 C-13.3125 10.4375 -13.3125 10.4375 -11 9 C-8.3125 9.375 -8.3125 9.375 -6 10 C-4.03177114 8.03177114 -4.33751619 4.65191291 -4 2 C-3.34 3.32 -2.68 4.64 -2 6 C-1.34 6 -0.68 6 0 6 C0 4.02 0 2.04 0 0 Z " fill="#8C68F0" transform="translate(181,26)"/>
<path d="M0 0 C2.125 0.375 2.125 0.375 4 1 C4.05437607 2.58294782 4.09296271 4.16644256 4.125 5.75 C4.14820313 6.63171875 4.17140625 7.5134375 4.1953125 8.421875 C3.99139502 11.1135858 3.36551721 12.69904974 2 15 C1.01 14.67 0.02 14.34 -1 14 C-2.23887548 11.52224905 -2.16741669 9.76346293 -2.1875 7 C-2.20167969 6.113125 -2.21585938 5.22625 -2.23046875 4.3125 C-2 2 -2 2 0 0 Z " fill="#8482EC" transform="translate(32,28)"/>
<path d="M0 0 C1.65 0 3.3 0 5 0 C5 4.95 5 9.9 5 15 C3.35 15 1.7 15 0 15 C0 10.05 0 5.1 0 0 Z " fill="#8D68F0" transform="translate(95,26)"/>
<path d="M0 0 C0 1.98 0 3.96 0 6 C-0.93972656 6.09087891 -0.93972656 6.09087891 -1.8984375 6.18359375 C-2.71570313 6.26738281 -3.53296875 6.35117187 -4.375 6.4375 C-5.18710938 6.51871094 -5.99921875 6.59992187 -6.8359375 6.68359375 C-9.04272805 6.89090114 -9.04272805 6.89090114 -11 8 C-11.25 5.6875 -11.25 5.6875 -11 3 C-7.85004477 -0.65394807 -4.57703263 -0.26405958 0 0 Z " fill="#9F81F2" transform="translate(124,26)"/>
<path d="M0 0 C1.2065625 0.0309375 1.2065625 0.0309375 2.4375 0.0625 C2.81968767 1.71864657 3.15145102 3.38707024 3.4375 5.0625 C2.4375 6.0625 2.4375 6.0625 -0.125 6.125 C-1.3315625 6.0940625 -1.3315625 6.0940625 -2.5625 6.0625 C-2.94468767 4.40635343 -3.27645102 2.73792976 -3.5625 1.0625 C-2.5625 0.0625 -2.5625 0.0625 0 0 Z " fill="#F7F4FB" transform="translate(154.5625,30.9375)"/>
<path d="M0 0 C-0.5625 1.9375 -0.5625 1.9375 -2 4 C-5.5 4.875 -5.5 4.875 -9 5 C-9.66 4.34 -10.32 3.68 -11 3 C-10.01 3 -9.02 3 -8 3 C-8 2.34 -8 1.68 -8 1 C-4.93251126 -0.86240388 -3.40254489 -1.2151946 0 0 Z " fill="#8D6BEF" transform="translate(127,37)"/>
<path d="M0 0 C1.98 0.495 1.98 0.495 4 1 C4 2.32 4 3.64 4 5 C2.35 4.67 0.7 4.34 -1 4 C-0.67 2.68 -0.34 1.36 0 0 Z " fill="#8965ED" transform="translate(96,19)"/>
<path d="M0 0 C2.64 0 5.28 0 8 0 C6.8125 1.5625 6.8125 1.5625 5 3 C2.3125 2.6875 2.3125 2.6875 0 2 C0 1.34 0 0.68 0 0 Z " fill="#F4EFFA" transform="translate(117,35)"/>
</svg>
