<svg width="80" height="80" viewBox="0 0 80 80" fill="none" xmlns="http://www.w3.org/2000/svg">
<path d="M35 40.8333C41.4342 40.8333 46.6667 35.6008 46.6667 29.1667C46.6667 22.7325 41.4342 17.5 35 17.5C28.5659 17.5 23.3334 22.7325 23.3334 29.1667C23.3334 35.6008 28.5659 40.8333 35 40.8333ZM35 23.3333C38.2171 23.3333 40.8334 25.9496 40.8334 29.1667C40.8334 32.3838 38.2171 35 35 35C31.783 35 29.1667 32.3838 29.1667 29.1667C29.1667 25.9496 31.783 23.3333 35 23.3333Z" fill="black"/>
<path d="M33.3083 63.6238C33.8019 63.9764 34.3934 64.1659 35 64.1659C35.6066 64.1659 36.198 63.9764 36.6916 63.6238C37.5783 62.9968 58.4179 47.9497 58.3333 29.1663C58.3333 16.3009 47.8654 5.83301 35 5.83301C22.1346 5.83301 11.6666 16.3009 11.6666 29.1518C11.5821 47.9497 32.4216 62.9968 33.3083 63.6238ZM35 11.6663C44.6512 11.6663 52.5 19.5151 52.5 29.1809C52.5612 42.1251 39.7016 53.748 35 57.5601C30.3012 53.7451 17.4387 42.1193 17.5 29.1663C17.5 19.5151 25.3487 11.6663 35 11.6663Z" fill="black"/>
</svg>
