<svg width="80" height="80" viewBox="0 0 80 80" fill="none" xmlns="http://www.w3.org/2000/svg">
<g clip-path="url(#clip0_201_2256)">
<path d="M65.3139 12.0358C65.0753 11.8417 64.794 11.707 64.4931 11.6428C64.1923 11.5786 63.8805 11.5866 63.5834 11.6663L44.8973 17.4997L26.1723 7.99134C25.9163 7.87288 25.6376 7.81152 25.3556 7.81152C25.0736 7.81152 24.7949 7.87288 24.5389 7.99134L5.0945 15.9441C4.73634 16.0912 4.43027 16.342 4.21549 16.6641C4.00071 16.9863 3.887 17.3653 3.88894 17.7524V57.5747C3.89053 57.8931 3.97031 58.2063 4.12128 58.4868C4.27226 58.7672 4.48979 59.0062 4.75478 59.1829C5.01976 59.3595 5.32408 59.4684 5.64099 59.4999C5.9579 59.5314 6.27769 59.4846 6.57227 59.3636L25.2778 51.683L43.9251 61.2497C44.2018 61.3915 44.5085 61.4648 44.8195 61.4636C45.0128 61.4929 45.2095 61.4929 45.4028 61.4636L64.8473 55.3969C65.257 55.2685 65.6127 55.0082 65.8589 54.6564C66.1051 54.3047 66.228 53.8814 66.2084 53.4524V13.6108C66.1983 13.2954 66.1116 12.9872 65.9558 12.7128C65.7999 12.4384 65.5796 12.206 65.3139 12.0358ZM62.2223 52.0136L46.0445 57.0691V52.6163H42.9334V56.5052L26.6001 48.1247V44.8386H23.4889V48.183L7.77783 54.658V19.0358L23.4889 12.5608V17.1302H26.6001V12.5802L42.9334 20.9413V25.0247H46.0445V21.3886L62.2223 16.2552V52.0136Z" fill="black"/>
<path d="M42.9333 29.2832H46.0445V36.6915H42.9333V29.2832Z" fill="black"/>
<path d="M42.9333 40.9502H46.0445V48.3585H42.9333V40.9502Z" fill="black"/>
<path d="M23.4889 21.5059H26.6V28.9142H23.4889V21.5059Z" fill="black"/>
<path d="M23.4889 33.3086H26.6V40.6003H23.4889V33.3086Z" fill="black"/>
</g>
<defs>
<clipPath id="clip0_201_2256">
<rect width="70" height="70" fill="white"/>
</clipPath>
</defs>
</svg>
