<?xml version="1.0" encoding="UTF-8"?>
<svg version="1.1" xmlns="http://www.w3.org/2000/svg" width="269" height="86">
<path d="M0 0 C2.16329888 0.03216077 4.31910631 0.00019417 6.48217773 -0.03808594 C17.78885985 -0.07203217 26.62484094 2.79623213 35.10522461 10.53222656 C41.58816733 17.60820354 44.68893152 24.6583473 47.73022461 33.78222656 C106.80022461 33.78222656 165.87022461 33.78222656 226.73022461 33.78222656 C226.73022461 40.05222656 226.73022461 46.32222656 226.73022461 52.78222656 C167.33022461 52.78222656 107.93022461 52.78222656 46.73022461 52.78222656 C46.40022461 55.09222656 46.07022461 57.40222656 45.73022461 59.78222656 C41.43019203 71.85184591 32.77957269 79.78451904 21.73022461 85.78222656 C16.48843818 87.52948871 10.86978771 87.0872221 5.38134766 87.13232422 C3.91796864 87.14878663 2.45466674 87.17594703 0.99169922 87.21435547 C-12.50818652 87.56627361 -21.04649411 84.66911999 -31.00805664 75.23925781 C-39.21587383 66.32264812 -42.85294447 55.89024278 -42.70727539 43.90722656 C-42.69970215 43.03026123 -42.69212891 42.1532959 -42.68432617 41.24975586 C-42.36840206 28.80303765 -37.41972289 19.21006988 -29.08227539 10.09472656 C-20.26090805 2.01224298 -11.66607155 -0.20584856 0 0 Z " fill="#FDFEFE" transform="translate(42.269775390625,-0.7822265625)"/>
<path d="M0 0 C59.07 0 118.14 0 179 0 C179 6.27 179 12.54 179 19 C156.10426389 19.02312833 133.20853058 19.04098404 110.31278515 19.05181217 C99.68239635 19.05697302 89.05201492 19.06401173 78.42163086 19.07543945 C69.15844239 19.0853927 59.89525926 19.09185496 50.63206559 19.09408849 C45.7252612 19.09539451 40.8184721 19.09847349 35.91167259 19.10573006 C31.29643504 19.11250036 26.68121914 19.11461489 22.0659771 19.11310768 C20.36921318 19.11338355 18.67244857 19.1153827 16.97568893 19.11920547 C14.66456713 19.12415846 12.35352776 19.12299231 10.04240417 19.12025452 C8.74728503 19.12117631 7.45216589 19.1220981 6.11780071 19.12304783 C3 19 3 19 0 18 C0 12.06 0 6.12 0 0 Z " fill="#F9FBFE" transform="translate(90,33)"/>
<path d="M0 0 C7.93458167 5.33892782 12.01729859 12.05189578 15 21 C15.76053223 29.19130618 14.83775049 35.71714016 11 43 C10.66097656 43.64839844 10.32195312 44.29679687 9.97265625 44.96484375 C6.07666406 51.30103034 -0.3871903 54.30889759 -6.9375 57.375 C-16.46685794 59.31976693 -24.64777211 57.89020306 -33.125 53.3125 C-41.10116675 46.89688761 -45.98369373 39.71468852 -47.34375 29.390625 C-47.66575253 20.7502237 -45.14852001 13.55555922 -39.7265625 6.8515625 C-28.84359879 -4.81930808 -14.21038995 -7.34376356 0 0 Z " fill="#1A70FB" transform="translate(61,16)"/>
<path d="M0 0 C4.00521387 2.88747977 7.46370991 6.48991981 9.6875 10.9375 C10.21486173 17.14414192 10.44997482 22.71858332 6.6875 27.9375 C1.90404678 32.63237076 -1.23815213 35.0887281 -8.0625 35.25 C-13.36387515 35.19299597 -16.30854727 34.64848058 -20.3125 30.9375 C-25.51680899 25.49146081 -26.74067775 21.21693129 -26.65234375 13.796875 C-26.02965862 8.55773114 -23.64264775 5.07397313 -19.80859375 1.55859375 C-13.94242869 -2.49824811 -6.55472113 -2.10245772 0 0 Z " fill="#FCFDFE" transform="translate(53.3125,26.0625)"/>
<path d="M0 0 C13.86 0 27.72 0 42 0 C42 6.27 42 12.54 42 19 C25.17 19 8.34 19 -9 19 C-9 18.67 -9 18.34 -9 18 C-5.7 17.67 -2.4 17.34 1 17 C1 14.03 1 11.06 1 8 C-0.98 8 -2.96 8 -5 8 C-5 8.99 -5 9.98 -5 11 C-4.01 11 -3.02 11 -2 11 C-2 11.99 -2 12.98 -2 14 C-3.98 14.33 -5.96 14.66 -8 15 C-9.5625 13.3125 -9.5625 13.3125 -11 11 C-10.75925978 7.62963689 -10.41201979 6.41201979 -8 4 C-5.27130593 4.03287583 -2.7033382 4.56397771 0 5 C0 3.35 0 1.7 0 0 Z " fill="#FDFEFE" transform="translate(227,33)"/>
<path d="M0 0 C6.4709556 5.30124721 9.86264298 11.4512102 12.48046875 19.3046875 C12.54945975 21.36613857 12.56514602 23.42970151 12.54296875 25.4921875 C12.53394531 26.57886719 12.52492187 27.66554687 12.515625 28.78515625 C12.50402344 29.61660156 12.49242187 30.44804688 12.48046875 31.3046875 C12.15046875 31.3046875 11.82046875 31.3046875 11.48046875 31.3046875 C11.41988281 30.67820313 11.35929687 30.05171875 11.296875 29.40625 C11.21308594 28.58898438 11.12929687 27.77171875 11.04296875 26.9296875 C10.96175781 26.11757813 10.88054687 25.30546875 10.796875 24.46875 C10.58956761 22.26195945 10.58956761 22.26195945 9.48046875 20.3046875 C7.17046875 20.3046875 4.86046875 20.3046875 2.48046875 20.3046875 C1.82046875 22.6146875 1.16046875 24.9246875 0.48046875 27.3046875 C0.15046875 27.3046875 -0.17953125 27.3046875 -0.51953125 27.3046875 C-0.59429687 26.66402344 -0.6690625 26.02335937 -0.74609375 25.36328125 C-1.71490918 18.98999542 -3.35971105 14.40458978 -8.51953125 10.3046875 C-13.76522244 7.73377944 -18.78478488 7.52668694 -24.51953125 8.3046875 C-28.93521088 9.98857188 -31.74274662 12.20215448 -34.45703125 16.0546875 C-35.78773249 20.12506775 -36.24503208 24.04521757 -36.51953125 28.3046875 C-36.84953125 28.3046875 -37.17953125 28.3046875 -37.51953125 28.3046875 C-37.84953125 25.6646875 -38.17953125 23.0246875 -38.51953125 20.3046875 C-40.40671875 20.211875 -40.40671875 20.211875 -42.33203125 20.1171875 C-43.03972656 20.08238281 -43.74742188 20.04757813 -44.4765625 20.01171875 C-47.05523731 20.38150959 -47.88505175 21.34021845 -49.51953125 23.3046875 C-48.29298401 13.17509908 -44.26269177 5.89396271 -36.24609375 -0.48046875 C-25.12638849 -8.30451476 -11.10967981 -7.47535044 0 0 Z " fill="#83B2FA" transform="translate(63.51953125,17.6953125)"/>
<path d="M0 0 C3.98375021 -0.04620329 7.96680745 -0.08593897 11.95068359 -0.10986328 C13.96328119 -0.12472879 15.97579188 -0.150157 17.98828125 -0.17578125 C33.70608218 -0.25476517 33.70608218 -0.25476517 38.96875 3.34765625 C41.02440247 6.64137213 40.71758043 10.29138339 40 14 C36.97233381 17.46018993 34.4272896 18.32456984 30 19 C27.905128 19.09039913 25.80775794 19.13063447 23.7109375 19.1328125 C22.52242187 19.13410156 21.33390625 19.13539062 20.109375 19.13671875 C18.87703125 19.13285156 17.6446875 19.12898438 16.375 19.125 C15.13492188 19.12886719 13.89484375 19.13273437 12.6171875 19.13671875 C10.83828125 19.13478516 10.83828125 19.13478516 9.0234375 19.1328125 C7.93981934 19.13168457 6.85620117 19.13055664 5.73974609 19.12939453 C3 19 3 19 0 18 C0 12.06 0 6.12 0 0 Z " fill="#F7FAFE" transform="translate(90,33)"/>
<path d="M0 0 C0.93457031 0.00322266 1.86914062 0.00644531 2.83203125 0.00976562 C3.80011719 0.01814453 4.76820313 0.02652344 5.765625 0.03515625 C6.74917969 0.03966797 7.73273438 0.04417969 8.74609375 0.04882812 C11.16933291 0.06059142 13.59244773 0.07702941 16.015625 0.09765625 C16.015625 1.74765625 16.015625 3.39765625 16.015625 5.09765625 C14.736875 5.05640625 13.458125 5.01515625 12.140625 4.97265625 C9.99691008 4.85552752 9.99691008 4.85552752 8.015625 5.09765625 C7.355625 5.75765625 6.695625 6.41765625 6.015625 7.09765625 C6.33761466 10.19692444 6.33761466 10.19692444 7.015625 13.09765625 C10.48710342 13.84722782 10.48710342 13.84722782 14.015625 14.09765625 C14.015625 13.10765625 14.015625 12.11765625 14.015625 11.09765625 C13.025625 11.09765625 12.035625 11.09765625 11.015625 11.09765625 C11.015625 10.10765625 11.015625 9.11765625 11.015625 8.09765625 C12.995625 8.09765625 14.975625 8.09765625 17.015625 8.09765625 C17.015625 11.06765625 17.015625 14.03765625 17.015625 17.09765625 C8.73536063 19.07503282 -0.71381642 20.85450911 -8.984375 18.09765625 C-8.984375 12.48765625 -8.984375 6.87765625 -8.984375 1.09765625 C-5.64925126 0.26387532 -3.35993268 -0.02048739 0 0 Z " fill="#EBF3FE" transform="translate(210.984375,32.90234375)"/>
<path d="M0 0 C0.75410156 0.00322266 1.50820312 0.00644531 2.28515625 0.00976562 C3.06246094 0.01814453 3.83976563 0.02652344 4.640625 0.03515625 C5.43339844 0.03966797 6.22617188 0.04417969 7.04296875 0.04882812 C8.99222008 0.0605706 10.94143238 0.07850479 12.890625 0.09765625 C11.570625 0.42765625 10.250625 0.75765625 8.890625 1.09765625 C8.890625 6.70765625 8.890625 12.31765625 8.890625 18.09765625 C9.880625 18.42765625 10.870625 18.75765625 11.890625 19.09765625 C5.12468481 19.2114758 -1.39774562 18.97786994 -8.109375 18.09765625 C-8.109375 12.48765625 -8.109375 6.87765625 -8.109375 1.09765625 C-5.02589218 0.32678555 -3.05700214 -0.02315911 0 0 Z " fill="#FAFCFE" transform="translate(193.109375,32.90234375)"/>
<path d="M0 0 C6.15234375 -0.09765625 6.15234375 -0.09765625 8 0 C9 1 9 1 9.11352539 2.76586914 C9.10828857 3.51473389 9.10305176 4.26359863 9.09765625 5.03515625 C9.09515869 5.76355713 9.09266113 6.49195801 9.09008789 7.24243164 C9.08098389 8.1730542 9.07187988 9.10367676 9.0625 10.0625 C9.041875 13.011875 9.02125 15.96125 9 19 C3.06 19 -2.88 19 -9 19 C-9 18.67 -9 18.34 -9 18 C-5.7 17.67 -2.4 17.34 1 17 C1 14.03 1 11.06 1 8 C-0.98 8 -2.96 8 -5 8 C-5 8.99 -5 9.98 -5 11 C-4.01 11 -3.02 11 -2 11 C-2 11.99 -2 12.98 -2 14 C-3.98 14.33 -5.96 14.66 -8 15 C-9.5625 13.3125 -9.5625 13.3125 -11 11 C-10.75925978 7.62963689 -10.41201979 6.41201979 -8 4 C-5.27130593 4.03287583 -2.7033382 4.56397771 0 5 C0 3.35 0 1.7 0 0 Z " fill="#F8FAFE" transform="translate(227,33)"/>
<path d="M0 0 C3 1.4375 3 1.4375 5 4 C5.70493705 7.14910406 5.70493705 9.85089594 5 13 C2.87514581 15.72246943 1.42877889 16.73121981 -1.97265625 17.37109375 C-5.2917471 17.57582272 -7.61762348 17.2198665 -10.5 15.5625 C-12.73570183 11.74317604 -12.76004105 8.31481639 -12 4 C-9.22767237 -0.73605971 -5.07715518 -0.9551084 0 0 Z " fill="#2375FB" transform="translate(125,34)"/>
<path d="M0 0 C3 1.5 3 1.5 5 4 C5.78631447 8.95378117 5.78352545 10.82471182 3 15 C-1.17528818 17.78352545 -3.04621883 17.78631447 -8 17 C-10.6483191 14.88134472 -11.73807669 13.37782575 -12.375 10.02734375 C-12.57568891 6.67207596 -12.23027695 4.38379492 -10.5 1.5 C-7.00882209 -0.59470675 -3.90902027 -0.74310088 0 0 Z " fill="#2275FB" transform="translate(149,34)"/>
<path d="M0 0 C9.57 0 19.14 0 29 0 C29 0.33 29 0.66 29 1 C27.906875 1.103125 26.81375 1.20625 25.6875 1.3125 C22.18611381 1.76689628 22.18611381 1.76689628 20.0625 3.0625 C18.31423181 6.25051847 18.4922448 9.50213084 19 13 C19.95173938 15.52040427 19.95173938 15.52040427 22 17 C25.10197397 17.80946422 25.10197397 17.80946422 28 18 C28 18.33 28 18.66 28 19 C19.09 19 10.18 19 1 19 C1 18.67 1 18.34 1 18 C2.11375 17.71125 3.2275 17.4225 4.375 17.125 C8.00291092 16.30758671 8.00291092 16.30758671 10 14 C10.49593137 10.96097873 10.44684212 8.04411193 10 5 C7.32077644 1.70249408 4.09429183 1.46526044 0 1 C0 0.67 0 0.34 0 0 Z " fill="#F0F6FE" transform="translate(119,33)"/>
<path d="M0 0 C1.65 0 3.3 0 5 0 C6.80078125 1.96875 6.80078125 1.96875 8.3125 4.5 C8.82425781 5.3353125 9.33601563 6.170625 9.86328125 7.03125 C10.23839844 7.6809375 10.61351563 8.330625 11 9 C11.33 6.03 11.66 3.06 12 0 C13.32 0 14.64 0 16 0 C16 5.61 16 11.22 16 17 C14.35 17 12.7 17 11 17 C9.19921875 15.03125 9.19921875 15.03125 7.6875 12.5 C6.91986328 11.24703125 6.91986328 11.24703125 6.13671875 9.96875 C5.76160156 9.3190625 5.38648437 8.669375 5 8 C4.67 10.97 4.34 13.94 4 17 C2.68 17 1.36 17 0 17 C0 11.39 0 5.78 0 0 Z " fill="#337FFB" transform="translate(90,34)"/>
<path d="M0 0 C1.65 0 3.3 0 5 0 C6.80078125 2.1875 6.80078125 2.1875 8.3125 5 C8.82425781 5.928125 9.33601562 6.85625 9.86328125 7.8125 C10.23839844 8.534375 10.61351562 9.25625 11 10 C11.33 6.7 11.66 3.4 12 0 C13.32 0 14.64 0 16 0 C16 5.28 16 10.56 16 16 C14.35 16.33 12.7 16.66 11 17 C9.02 14.03 7.04 11.06 5 8 C4.67 10.97 4.34 13.94 4 17 C2.68 17 1.36 17 0 17 C0 11.39 0 5.78 0 0 Z " fill="#317EFB" transform="translate(161,34)"/>
<path d="M0 0 C1.32 0 2.64 0 4 0 C4 1.98 4 3.96 4 6 C5.98 6 7.96 6 10 6 C10 4.02 10 2.04 10 0 C11.32 0 12.64 0 14 0 C14 5.61 14 11.22 14 17 C12.68 17 11.36 17 10 17 C10 14.69 10 12.38 10 10 C8.02 10 6.04 10 4 10 C4 12.31 4 14.62 4 17 C2.68 17 1.36 17 0 17 C0 11.39 0 5.78 0 0 Z " fill="#3A84FB" transform="translate(236,34)"/>
<path d="M0 0 C0.66 0.33 1.32 0.66 2 1 C2 1.99 2 2.98 2 4 C0.72125 3.95875 -0.5575 3.9175 -1.875 3.875 C-4.01871492 3.75787127 -4.01871492 3.75787127 -6 4 C-6.66 4.66 -7.32 5.32 -8 6 C-7.67801034 9.09926819 -7.67801034 9.09926819 -7 12 C-3.52852158 12.74957157 -3.52852158 12.74957157 0 13 C0 12.01 0 11.02 0 10 C-0.99 10 -1.98 10 -3 10 C-3 9.01 -3 8.02 -3 7 C-1.02 7 0.96 7 3 7 C3 9.97 3 12.94 3 16 C-0.21943632 17.60971816 -3.50914646 17.45387771 -7 17 C-10 15.5625 -10 15.5625 -12 13 C-12.89296969 8.69319927 -12.73370655 5.25341536 -10.5 1.4375 C-6.80924814 -0.68468232 -4.230824 -0.34119548 0 0 Z " fill="#2375FB" transform="translate(225,34)"/>
<path d="M0 0 C4.62 0 9.24 0 14 0 C14 1.32 14 2.64 14 4 C12.35 4 10.7 4 9 4 C9 8.29 9 12.58 9 17 C7.68 17 6.36 17 5 17 C5 12.71 5 8.42 5 4 C3.35 4 1.7 4 0 4 C0 2.68 0 1.36 0 0 Z " fill="#3F87FB" transform="translate(255,34)"/>
<path d="M0 0 C2.9375 0.8125 2.9375 0.8125 4.9375 2.8125 C4.75 5.8125 4.75 5.8125 3.9375 8.8125 C0.9375 10.8125 0.9375 10.8125 -1.625 10.5625 C-4.0625 9.8125 -4.0625 9.8125 -6.0625 7.8125 C-6.4258156 4.97863833 -6.4193671 3.40727849 -4.9375 0.9375 C-3.0625 -0.1875 -3.0625 -0.1875 0 0 Z " fill="#E9F1FE" transform="translate(146.0625,37.1875)"/>
<path d="M0 0 C2.9375 0.8125 2.9375 0.8125 4.9375 2.8125 C4.75 5.8125 4.75 5.8125 3.9375 8.8125 C0.9375 10.8125 0.9375 10.8125 -1.625 10.5625 C-4.0625 9.8125 -4.0625 9.8125 -6.0625 7.8125 C-6.4258156 4.97863833 -6.4193671 3.40727849 -4.9375 0.9375 C-3.0625 -0.1875 -3.0625 -0.1875 0 0 Z " fill="#E9F1FE" transform="translate(122.0625,37.1875)"/>
<path d="M0 0 C1.32 0 2.64 0 4 0 C4 4.29 4 8.58 4 13 C5.98 13 7.96 13 10 13 C10 14.32 10 15.64 10 17 C6.7 17 3.4 17 0 17 C0 11.39 0 5.78 0 0 Z " fill="#3782FB" transform="translate(185,34)"/>
<path d="M0 0 C2.72869407 0.03287583 5.2966618 0.56397771 8 1 C8.33 1.99 8.66 2.98 9 4 C7.02 4 5.04 4 3 4 C3 4.99 3 5.98 3 7 C3.99 7 4.98 7 6 7 C6 7.99 6 8.98 6 10 C4.02 10.33 2.04 10.66 0 11 C-1.5625 9.3125 -1.5625 9.3125 -3 7 C-2.75925978 3.62963689 -2.41201979 2.41201979 0 0 Z " fill="#E1ECFE" transform="translate(219,37)"/>
<path d="M0 0 C1.99954746 -0.04254356 4.00041636 -0.04080783 6 0 C7 1 7 1 7.09765625 3.50390625 C7.08605469 4.51324219 7.07445312 5.52257813 7.0625 6.5625 C7.05347656 7.57441406 7.04445312 8.58632813 7.03515625 9.62890625 C7.02355469 10.41136719 7.01195312 11.19382812 7 12 C4.15774058 9.26361271 2.04622418 6.38685382 0 3 C0 2.01 0 1.02 0 0 Z " fill="#EEF4FE" transform="translate(166,33)"/>
<path d="M0 0 C0.99 0 1.98 0 3 0 C3 4.95 3 9.9 3 15 C2.01 15 1.02 15 0 15 C0 10.05 0 5.1 0 0 Z " fill="#1B71FB" transform="translate(202,35)"/>
</svg>
