<svg width="300" height="300" viewBox="0 0 300 300" fill="none" xmlns="http://www.w3.org/2000/svg">
<path fill-rule="evenodd" clip-rule="evenodd" d="M242.92 22.9201C244.795 21.0453 247.338 19.9922 249.99 19.9922C252.642 19.9922 255.185 21.0453 257.06 22.9201L297.06 62.9201C297.991 63.849 298.73 64.9525 299.234 66.1674C299.738 67.3823 299.998 68.6847 299.998 70.0001C299.998 71.3154 299.738 72.6178 299.234 73.8327C298.73 75.0476 297.991 76.1511 297.06 77.0801L218.22 155.92C216.7 157.445 214.944 158.715 213.02 159.68L134.48 198.94C132.604 199.876 130.482 200.199 128.412 199.864C126.343 199.528 124.432 198.55 122.948 197.069C121.465 195.588 120.484 193.678 120.145 191.609C119.807 189.54 120.127 187.417 121.06 185.54L160.32 106.98C161.285 105.056 162.555 103.3 164.08 101.78L242.92 22.9201ZM250 44.1401L178.2 115.94L157.46 157.46L162.54 162.54L204.08 141.78L275.86 70.0001L250 44.1401ZM200 40.0001L180 60.0001H98C89.44 60.0001 83.6 60.0001 79.12 60.3801C74.72 60.7401 72.48 61.3801 70.92 62.1801C67.1569 64.0975 64.0974 67.157 62.18 70.9201C61.38 72.4801 60.74 74.7201 60.38 79.1201C60 83.6001 60 89.4401 60 98.0001V222C60 230.56 60 236.4 60.38 240.88C60.74 245.28 61.38 247.52 62.18 249.08C64.0974 252.843 67.1569 255.903 70.92 257.82C72.48 258.62 74.72 259.26 79.12 259.62C83.62 260 89.44 260 98 260H222C230.56 260 236.4 260 240.88 259.62C245.28 259.26 247.52 258.62 249.08 257.82C252.843 255.903 255.903 252.843 257.82 249.08C258.62 247.52 259.26 245.28 259.62 240.88C260 236.38 260 230.56 260 222V140L280 120V222.4C280 230.46 280 237.1 279.56 242.52C279.1 248.14 278.12 253.32 275.64 258.16C271.805 265.686 265.686 271.805 258.16 275.64C253.3 278.12 248.14 279.1 242.52 279.56C237.12 280 230.46 280 222.42 280H97.6C89.54 280 82.9 280 77.48 279.56C71.86 279.1 66.68 278.12 61.84 275.64C54.3139 271.805 48.1949 265.686 44.36 258.16C41.88 253.3 40.9 248.14 40.44 242.52C40 237.12 40 230.46 40 222.4V97.6001C40 89.5401 40 82.9001 40.44 77.4801C40.9 71.8601 41.88 66.6801 44.36 61.8401C48.1949 54.3139 54.3139 48.1949 61.84 44.3601C66.7 41.8801 71.86 40.9001 77.48 40.4401C82.88 40.0001 89.54 40.0001 97.6 40.0001H98H200Z" fill="#4F0202"/>
</svg>
