<svg width="75" height="75" viewBox="0 0 75 75" fill="none" xmlns="http://www.w3.org/2000/svg">
<path d="M17.625 14.0625V20.0312H7.03125V25.875C7.03125 35.6562 9.9375 41.1094 16.9219 44.5C19.5184 45.8961 21.915 47.6357 24.0469 49.6719C25.7604 51.4996 27.8501 52.9336 30.1719 53.875L32.8125 54.6875V61.7656H28.7813C23.9063 61.7656 22.2656 62.875 22.2656 66.1719V68.3906H52.7344V66.4062C52.7344 63.1719 50.7344 61.7188 46.1094 61.7188H42.1875V54.6875L44.875 53.8906C47.2001 52.9483 49.2907 51.5083 51 49.6719C53.2241 47.5521 55.7136 45.7296 58.4063 44.25C60.497 43.2438 62.3642 41.8277 63.8969 40.0856C65.4296 38.3436 66.5964 36.3113 67.3281 34.1094C67.8255 31.3831 68.0558 28.6148 68.0156 25.8438V20.0469H57.375V14.0625H17.625ZM37.5 24.0156L40.7031 30.6406H48.4219L42.375 36.2188L44.1094 43.3437L37.5 39.7969L30.8906 43.3906L32.625 36.2656L26.5625 30.6875H34.2969L37.5 24.0156ZM12.5938 26H17.5313V38.3125C17.0156 38.625 15.4062 36.75 14.2344 34.6094C13.5691 32.9705 13.1428 31.2445 12.9688 29.4844L12.5938 26ZM57.4687 26H62.8438L62.3906 29.4375C62.2841 32.299 61.1336 35.0225 59.1563 37.0937C58.691 37.7277 58.1008 38.2595 57.4219 38.6562L57.4687 26Z" stroke="black" stroke-linecap="round" stroke-linejoin="round"/>
</svg>
