<svg width="80" height="80" viewBox="0 0 80 80" fill="none" xmlns="http://www.w3.org/2000/svg">
<path d="M74.9375 62.4556L62.2681 49.7862L52.5231 45.7602C55.7679 41.1458 57.5063 35.641 57.5 30C57.5 14.8364 45.1636 2.5 30 2.5C14.8364 2.5 2.5 14.8364 2.5 30C2.5 45.1636 14.8364 57.5 30 57.5C35.69 57.5065 41.2404 55.7381 45.878 52.4411L49.8936 62.1598L62.5625 74.8298C63.375 75.6424 64.3396 76.287 65.4012 76.7267C66.4628 77.1665 67.6006 77.3929 68.7497 77.3929C69.8988 77.3929 71.0367 77.1666 72.0983 76.7269C73.1599 76.2872 74.1245 75.6427 74.9371 74.8302C75.7497 74.0177 76.3942 73.0531 76.834 71.9915C77.2738 70.9299 77.5001 69.7921 77.5002 68.643C77.5002 67.4939 77.2739 66.3561 76.8342 65.2944C76.3945 64.2328 75.75 63.2682 74.9375 62.4556ZM7.5 30C7.5 17.5937 17.5937 7.5 30 7.5C42.4062 7.5 52.5 17.5937 52.5 30C52.5 42.4062 42.4062 52.5 30 52.5C17.5937 52.5 7.5 42.4062 7.5 30ZM71.4017 71.2944C70.6979 71.9966 69.7442 72.391 68.75 72.391C67.7558 72.391 66.8021 71.9966 66.0983 71.2944L54.1339 59.33L50.4005 50.2933L59.4375 54.0267L71.402 65.9911C72.1042 66.695 72.4985 67.6486 72.4984 68.6428C72.4983 69.637 72.1039 70.5906 71.4017 71.2944Z" fill="black"/>
</svg>
